<?xml version="1.0" standalone="no"?>
<!DOCTYPE svg PUBLIC "-//W3C//DTD SVG 20010904//EN"
 "http://www.w3.org/TR/2001/REC-SVG-20010904/DTD/svg10.dtd">
<svg version="1.0" xmlns="http://www.w3.org/2000/svg"
 width="512.000000pt" height="512.000000pt" viewBox="0 0 512.000000 512.000000"
 preserveAspectRatio="xMidYMid meet">
<metadata>
Created by potrace 1.14, written by Peter Selinger 2001-2017
</metadata>
<g transform="translate(0.000000,512.000000) scale(0.100000,-0.100000)"
fill="#000000" stroke="none">
<path d="M2370 5114 c-19 -2 -78 -9 -130 -15 -788 -90 -1517 -582 -1919 -1296
-352 -625 -417 -1414 -173 -2099 97 -271 241 -528 419 -749 45 -55 99 -117
121 -139 41 -39 40 -39 112 -24 9 2 40 -19 70 -45 40 -36 50 -51 42 -59 -15
-15 -15 -53 -2 -78 5 -10 53 -51 105 -90 388 -292 838 -464 1330 -510 926 -86
1838 361 2361 1156 550 834 550 1954 0 2788 -411 626 -1048 1032 -1788 1142
-98 14 -474 27 -548 18z m366 -565 c420 -41 788 -195 1118 -467 99 -83 119
-92 159 -71 19 11 26 6 68 -40 47 -51 48 -52 34 -85 -17 -40 -14 -47 91 -198
511 -736 460 -1720 -124 -2418 -281 -336 -683 -575 -1118 -665 -736 -153
-1496 124 -1968 715 -307 386 -468 905 -428 1380 43 502 239 930 582 1271 421
420 1010 634 1586 578z"/>
<path d="M2517 4428 c-28 -22 -37 -65 -37 -179 0 -127 14 -175 54 -185 44 -11
76 4 92 41 17 42 19 237 3 284 -17 48 -73 68 -112 39z"/>
<path d="M1365 3725 c-23 -8 -58 -33 -81 -59 -68 -74 -80 -166 -34 -257 20
-38 461 -441 506 -461 18 -8 31 -8 49 0 38 17 41 16 95 -34 44 -41 48 -48 38
-69 -6 -13 -8 -34 -5 -47 4 -14 68 -78 151 -152 111 -98 147 -136 152 -160 21
-97 111 -198 210 -236 81 -30 186 -25 262 14 l54 27 41 -34 c23 -19 209 -175
412 -346 204 -171 381 -314 394 -318 54 -14 107 49 84 100 -6 13 -195 178
-419 367 -243 204 -408 350 -408 359 1 9 8 40 16 68 13 49 32 71 266 312 150
155 258 274 267 295 19 46 19 127 -1 174 -48 116 -191 169 -305 114 -31 -15
-114 -93 -273 -257 l-228 -236 -63 3 -62 3 -442 395 c-243 217 -465 407 -493
423 -57 31 -118 35 -183 12z"/>
<path d="M723 2625 c-35 -15 -49 -48 -39 -91 10 -40 58 -54 186 -54 128 0 176
14 186 54 11 44 -4 76 -41 92 -46 19 -247 19 -292 -1z"/>
<path d="M4103 2625 c-35 -15 -49 -48 -39 -91 10 -40 58 -54 186 -54 128 0
176 14 186 54 11 44 -4 76 -41 92 -46 19 -247 19 -292 -1z"/>
<path d="M2517 1048 c-28 -22 -37 -65 -37 -179 0 -127 14 -175 54 -185 44 -11
76 4 92 41 17 42 19 237 3 284 -17 48 -73 68 -112 39z"/>
</g>
</svg>
